<?xml version="1.0" encoding="utf-8" ?>
<svg xmlns="http://www.w3.org/2000/svg" xmlns:xlink="http://www.w3.org/1999/xlink" width="390" height="390">
	<path fill="white" transform="scale(0.380859 0.380859)" d="M0 0L1024 0L1024 1024L0 1024L0 0Z"/>
	<path transform="scale(0.380859 0.380859)" d="M749.949 29.979C750.584 31.0289 750.481 30.4573 750.188 31.7225C739.902 76.0347 728.048 120.044 717.424 164.293C732.18 161.926 746.858 158.933 761.56 156.245L843.383 141.34C875.054 135.558 907.295 130.918 938.672 123.75C892.309 161.575 844.784 198.067 798.026 235.415C786.011 245.013 773.562 254.03 761.758 263.897C783.437 286.735 801.995 308.008 813.867 337.729C816.598 344.565 818.731 351.703 821.003 358.704C824.295 351.729 828.646 344.236 830.659 336.782C832.218 331.008 832.442 324.912 833.946 319.098C843.418 282.484 876.699 263.044 906.141 243.915C917.254 236.694 928.038 228.792 939.416 222.006C936.498 227.916 934.221 234.205 931.885 240.361C925.9 256.13 921.235 271.276 917.645 287.765Q935.201 277.068 953.139 267.026C939.09 295.947 922.663 326.896 927.72 360.079C929.994 375.002 934.296 389.386 936.172 404.443C942.215 399.98 947.27 393.353 952.303 387.765C965.21 400.615 978.547 413.025 991.27 426.056C979.716 453.286 966.933 478.03 945.374 498.857C925.031 518.51 897.255 534.962 869.185 539.741C862.004 540.963 854.956 541.143 847.701 541.022C845.553 554.377 843.184 567.673 839.687 580.75Q838.907 583.628 838.076 586.492Q837.246 589.357 836.366 592.206Q835.486 595.055 834.556 597.889Q833.626 600.722 832.647 603.539Q831.669 606.356 830.641 609.155Q829.613 611.954 828.536 614.736Q827.46 617.517 826.335 620.279Q825.211 623.04 824.038 625.782Q822.865 628.524 821.645 631.245Q820.425 633.966 819.158 636.666Q817.89 639.365 816.576 642.042Q815.262 644.719 813.901 647.372Q812.54 650.026 811.134 652.655Q809.727 655.285 808.274 657.889Q806.822 660.494 805.325 663.073Q803.827 665.651 802.285 668.204Q800.743 670.756 799.156 673.281Q797.57 675.807 795.94 678.304Q794.31 680.801 792.636 683.269Q790.963 685.737 789.247 688.176Q787.531 690.615 785.772 693.023Q784.014 695.432 782.214 697.81Q780.414 700.187 778.573 702.533Q776.731 704.879 774.85 707.192Q772.968 709.506 771.046 711.786Q769.124 714.066 767.163 716.312Q765.202 718.559 763.202 720.771Q761.202 722.983 759.163 725.159Q757.125 727.336 755.049 729.477Q752.973 731.618 750.86 733.723Q748.747 735.827 746.598 737.894Q744.449 739.962 742.264 741.991Q739.917 744.17 737.528 746.303Q735.139 748.436 732.709 750.522Q730.279 752.608 727.809 754.646Q725.338 756.684 722.829 758.673Q720.319 760.662 717.771 762.602Q715.222 764.542 712.637 766.431Q710.051 768.321 707.429 770.16Q704.807 771.999 702.15 773.786Q699.492 775.573 696.8 777.308Q694.108 779.043 691.383 780.725Q688.658 782.407 685.9 784.035Q683.143 785.663 680.354 787.238Q677.565 788.812 674.746 790.331Q671.927 791.851 669.078 793.315Q666.23 794.779 663.354 796.187Q660.477 797.595 657.574 798.946Q654.671 800.298 651.741 801.593Q648.812 802.887 645.858 804.124Q642.904 805.362 639.927 806.541Q636.949 807.72 633.949 808.841Q630.949 809.961 627.928 811.023Q624.907 812.085 621.865 813.088Q618.824 814.09 615.763 815.033Q612.703 815.976 609.624 816.859Q606.546 817.743 603.451 818.565Q600.356 819.388 597.245 820.15Q594.135 820.912 591.01 821.613Q587.885 822.315 584.747 822.954Q581.609 823.594 578.459 824.173Q575.309 824.751 572.149 825.268Q568.988 825.785 565.818 826.24Q562.648 826.695 559.47 827.088C540.142 829.286 520.937 829.19 501.531 828.445C454.448 867.972 404.101 903.771 354.776 940.423C330.976 957.423 307.752 975.356 284.401 992.967C287.434 984.983 291.34 977.114 294.81 969.296L312.146 929.725L370.219 795.948C363.321 792.172 355.854 789.259 348.738 785.895Q334.304 779.048 320.654 770.748Q304.715 761.314 289.887 750.214C283.014 744.961 276.598 738.995 269.505 734.055C239.337 760.405 219.379 773.319 182.851 789.617C179.307 798.149 177.351 807.328 174.216 816.027C164.274 820.38 153.802 823.895 143.653 827.774C118.646 837.33 93.4042 846.589 68.6178 856.689C76.8071 844.4 83.9663 831.14 90.8219 818.063C80.7876 820.732 70.4044 823.262 60.6732 826.874C69.582 808.685 76.3009 788.968 83.4006 770.021C70.2281 764 59.3172 756.17 52.6159 742.982C44.9601 727.916 44.4522 709.947 49.7972 694.064C58.6315 667.812 82.179 652.005 108.352 646.216C111.996 645.409 122.53 644.745 124.801 643.387C125.963 642.692 126.182 642.008 126.583 640.776C126.02 639.693 125.389 639.686 124.231 639.554C122.351 639.34 120.396 639.47 118.499 639.305Q115.006 639.031 111.548 638.465Q108.09 637.899 104.692 637.044Q101.293 636.188 97.9791 635.051Q94.6649 633.913 91.458 632.501C70.962 623.431 54.0053 600.433 46.1981 579.865C38.6098 559.875 41.6256 538.797 50.3669 519.703C73.6689 468.805 138.123 422.177 189.283 403.103C210.194 328.38 249.893 269.339 312.314 222.962Q315.864 220.321 319.478 217.769Q323.093 215.217 326.769 212.755Q330.446 210.293 334.182 207.923Q337.919 205.553 341.713 203.277Q345.507 201.001 349.357 198.819Q353.206 196.638 357.108 194.552Q361.011 192.467 364.964 190.479Q368.917 188.491 372.918 186.602Q376.919 184.712 380.965 182.923Q385.012 181.134 389.102 179.445Q393.192 177.757 397.322 176.17Q401.452 174.584 405.621 173.1Q409.789 171.617 413.993 170.237Q418.197 168.857 422.434 167.582Q426.671 166.307 430.939 165.138Q435.206 163.968 439.501 162.905Q443.796 161.842 448.116 160.885Q452.436 159.929 456.779 159.08Q461.121 158.231 465.483 157.49Q469.845 156.749 474.224 156.117Q478.604 155.485 482.997 154.961Q487.391 154.437 491.796 154.023Q496.201 153.608 500.615 153.303Q505.029 152.998 509.45 152.803Q513.87 152.607 518.294 152.521Q522.718 152.436 527.142 152.46Q531.567 152.484 535.989 152.617Q540.412 152.751 544.83 152.995Q549.248 153.238 553.658 153.591Q558.069 153.944 562.469 154.406Q566.87 154.868 571.257 155.44Q575.645 156.011 580.017 156.691C595.456 146.578 610.213 134.601 625.035 123.562L698.752 68.2611C715.735 55.4115 732.556 42.2698 749.949 29.979Z"/>
	<path fill="white" transform="scale(0.380859 0.380859)" d="M723.022 287.483C736.479 298.007 747.189 312.071 757.418 325.581C734.618 331.351 712.111 338.376 689.362 344.382L689.04 343.988C690.387 338.791 697.692 327.01 700.263 321.2C690.016 323.214 679.533 324.247 669.225 325.992C676.395 320.619 684.053 315.861 691.323 310.609C701.908 302.961 712.201 294.783 723.022 287.483Z"/>
	<path fill="white" transform="scale(0.380859 0.380859)" d="M414.263 663.976C414.766 663.991 414.476 663.918 415.015 664.466C401.192 692.576 386.282 720.267 371.761 748.029C354.128 738.406 337.541 727.723 321.25 715.983C314.598 710.923 307.976 705.765 301.725 700.214C305.735 695.377 309.451 690.302 313.221 685.278C327.825 690.199 347.523 698.099 362.414 700.074C368.754 694.776 373.3 687.652 379.568 682.451C384.412 678.43 391.368 675.867 397.015 673.027Q405.7 668.617 414.263 663.976Z"/>
	<path fill="white" transform="scale(0.380859 0.380859)" d="M712.599 85.3298L709.347 89.9183C703.981 93.3789 699.194 98.6727 694.591 103.077Q685.152 112.236 675.257 120.9Q631.622 158.226 587.279 194.707C558.634 218.202 529.024 240.655 499.746 263.354C491.023 270.118 482.088 276.61 473.442 283.472C469.946 286.247 466.007 289.063 462.938 292.291C449.612 295.694 435.542 297.633 422.006 300.196C428.29 295.222 434.995 290.708 441.433 285.927C452.578 277.65 463.603 269.135 474.65 260.722Q544.892 206.413 616.689 154.175Q650.155 129.065 684.418 105.055C693.684 98.4918 702.648 90.7934 712.599 85.3298Z"/>
	<path fill="white" transform="scale(0.380859 0.380859)" d="M449.986 642.955C456.038 646.794 461.773 651.427 467.558 655.672C459.669 667.374 453.104 679.841 445.692 691.837Q436.401 706.681 427.379 721.69C424.707 726.045 421.651 730.304 419.245 734.794C433.261 732.755 447.213 730.384 461.297 728.83Q424.134 787.774 385.41 845.705C377.796 857.168 369.899 868.466 362.202 879.878C359.314 884.159 355.251 888.742 353.324 893.525L348.803 898.696C352.166 891.315 356.197 884.14 359.944 876.939L384.271 830.8C398.575 803.545 412.015 775.811 426.279 748.519C416.504 750.678 401.094 751.082 390.706 751.985C396.504 739.492 403.871 727.321 410.498 715.222Q430.469 679.213 449.986 642.955Z"/>
	<path fill="white" transform="scale(0.380859 0.380859)" d="M238.936 389.98C249.765 353.589 279.354 310.987 306.306 284.547C351.103 240.601 406.868 212.032 468.253 199.532C488.262 195.458 509.114 192.874 529.555 193.078C529.305 193.217 529.06 193.364 528.806 193.497C524.919 195.525 496.824 200.91 489.968 202.564Q473.19 206.674 456.83 212.221C390.569 234.385 326.195 281.397 287.712 340.008Q280.073 351.807 273.677 364.324Q267.281 376.841 262.194 389.945C254.397 389.382 246.73 389.627 238.936 389.98Z"/>
	<path fill="white" transform="scale(0.380859 0.380859)" d="M794.512 540.025C796.602 540.292 798.726 540.382 800.827 540.532C793.902 577.748 781.76 613.285 761.036 645.207C723.632 702.821 667.975 749.684 601.855 770.375Q588.723 774.525 575.224 777.25C566.576 778.931 557.837 780.055 549.215 781.887C558.197 773.259 568.092 765.323 577.51 757.165C593.458 742.876 609.257 728.401 625.708 714.69C611.013 711.619 595.794 709.25 580.918 707.32C588.032 700.252 595.08 693.098 602.548 686.401C606.41 691.695 610.246 696.979 614.431 702.027C640.57 693.607 667.05 686.286 693.083 677.52C697.289 665.361 700.272 652.44 703.861 640.067C707.892 626.167 712.581 612.418 716.272 598.428C748.891 589.72 775.158 566.896 794.512 540.025Z"/>
	<path fill="white" transform="scale(0.380859 0.380859)" d="M529.706 623.998C537.273 627.122 556.751 636.568 564.254 636.596C567.453 636.608 570.8 635.374 573.728 634.158C587.3 628.521 598.737 618.664 612.2 612.807C605.652 619.532 599.181 626.412 592.276 632.772C584.183 640.225 575.573 647.248 568.028 655.268C542.073 682.859 517.904 712.604 490.309 738.567C511.451 731.982 532.95 726.436 554.014 719.666Q477.088 787.589 398.799 853.937C388.161 862.857 377.88 872.228 367.46 881.402C362.926 885.394 358.311 890.135 353.324 893.525C355.251 888.742 359.314 884.159 362.202 879.878C369.899 868.466 377.796 857.168 385.41 845.705Q424.134 787.774 461.297 728.83C447.213 730.384 433.261 732.755 419.245 734.794C421.651 730.304 424.707 726.045 427.379 721.69Q436.401 706.681 445.692 691.837C453.104 679.841 459.669 667.374 467.558 655.672C474.205 660.131 480.794 664.727 487.543 669.027C501.523 654 515.302 638.61 529.706 623.998Z"/>
	<path fill="white" transform="scale(0.380859 0.380859)" d="M529.555 193.078L530.9 193.144C528.255 197.136 513.541 206.623 508.509 210.473L418.935 278.384L367.162 318.157C357.963 325.189 348.804 332.603 339.204 339.067C355.143 336.34 370.931 332.75 386.762 329.462Q417.596 323.323 448.362 316.847C470.459 312.069 492.439 306.76 514.612 302.338Q477.637 348.986 439.988 395.092C430.511 406.748 421.859 419.184 411.999 430.497L366.877 443.956C358.46 446.481 349.719 448.727 341.504 451.824C330.124 425.281 315.556 407.36 288.098 396.389C279.961 393.138 270.976 390.511 262.194 389.945Q267.281 376.841 273.677 364.324Q280.073 351.807 287.712 340.008C326.195 281.397 390.569 234.385 456.83 212.221Q473.19 206.674 489.968 202.564C496.824 200.91 524.919 195.525 528.806 193.497C529.06 193.364 529.305 193.217 529.555 193.078Z"/>
	<path fill="white" transform="scale(0.380859 0.380859)" d="M462.938 292.291C466.007 289.063 469.946 286.247 473.442 283.472C482.088 276.61 491.023 270.118 499.746 263.354C529.024 240.655 558.634 218.202 587.279 194.707Q631.623 158.226 675.257 120.9Q685.152 112.236 694.591 103.077C699.194 98.6727 703.981 93.3789 709.347 89.9183C703.359 104.227 695.694 117.969 688.37 131.622L663.627 178.108C662.218 180.769 653.786 195.4 653.458 197.26C653.405 197.559 653.502 197.866 653.543 198.166C653.547 198.198 653.575 198.221 653.592 198.249C663.907 197.206 674.543 194.636 684.778 192.794C712.214 187.855 739.618 182.366 766.992 177.071C778.915 174.764 790.953 171.762 802.975 170.124C799.727 172.226 796.102 173.875 792.654 175.635C785.927 181.868 777.65 187.051 770.213 192.468Q752.918 205.16 735.755 218.029L609.256 312.014C592.653 324.251 575.828 336.177 559.329 348.556C552.629 353.582 545.624 358.487 539.26 363.934Q567.77 358.5 596.168 352.508C617.396 348.187 638.83 344.091 659.714 338.313C655.142 341.199 650.1 343.524 645.27 345.961C627.553 354.903 609.089 362.235 590.669 369.582C562.893 380.662 534.94 390.652 506.711 400.5C492.911 405.314 479.428 410.615 465.412 414.839C457.981 417.866 449.99 420.042 442.237 422.1C448.253 414.026 454.808 406.314 461.075 398.431Q480.964 373.076 501.399 348.158L560.918 273.541C558.324 272.85 474.346 290.971 462.938 292.291Z"/>
	<path fill="white" transform="scale(0.380859 0.380859)" d="M653.592 198.249C663.907 197.206 674.543 194.636 684.778 192.794C712.214 187.855 739.618 182.366 766.992 177.071C778.915 174.764 790.953 171.762 802.975 170.124C799.727 172.226 796.102 173.875 792.654 175.635C786.168 177.282 779.816 179.647 773.41 181.606C762.277 185.011 751.029 188.177 739.816 191.312Q691.104 204.428 642.223 216.899C644.249 213.367 651.01 199.592 653.592 198.249Z"/>
	<path fill="white" transform="scale(0.380859 0.380859)" d="M560.918 273.541C562.717 271.841 588.606 266.854 593.486 265.717C585.901 273.206 579.398 281.84 572.498 289.957L532.013 337.629L489.668 386.413C481.521 395.75 472.937 404.999 465.412 414.839C457.981 417.866 449.99 420.042 442.237 422.1C448.253 414.026 454.808 406.314 461.075 398.431Q480.964 373.076 501.399 348.158L560.918 273.541Z"/>
	<path fill="white" transform="scale(0.380859 0.380859)" d="M246.503 408.712C259.649 407.555 274.397 410.428 286.244 416.188C304.619 425.123 317.173 441.071 323.658 460.251C334.63 492.699 325.765 527.048 316.816 558.774C311.014 579.348 304.832 598.269 295.322 617.47C272.157 664.246 232.833 708.45 186.376 732.995C175.759 738.604 164.791 742.671 153.436 746.514Q149.01 760.811 144.082 774.943Q119.528 782.8 95.0802 790.984C97.8523 779.162 102.571 767.323 106.249 755.718C100.384 755.175 94.6086 754.291 89.1076 752.094C79.66 748.319 70.8404 741.051 66.883 731.506C62.465 720.849 63.3966 707.895 67.8292 697.405C74.9141 680.637 88.1262 671.79 104.392 665.151C101.01 668.771 97.9906 672.495 95.6694 676.896C91.5481 684.71 89.0162 695.767 91.877 704.349C93.9835 710.669 98.5722 713.848 104.263 716.619C108.081 717.863 111.884 718.585 115.84 719.25C120.405 705.673 124.197 691.785 128.47 678.108Q147.389 617.844 165.374 557.294C172.362 534.045 179.076 510.51 187.034 487.577Q184.126 488.554 181.283 489.707C150.11 502.253 111.69 524.079 98.0836 556.502C93.9938 566.248 92.7093 578.579 96.9435 588.512C101.408 598.986 111.352 603.408 121.303 607.194C105.441 605.372 89.0957 602.089 76.6604 591.344C66.7807 582.807 61.6948 571.2 60.7452 558.274C59.0309 534.937 74.626 511.454 89.2152 494.416C125.393 452.165 190.315 413.032 246.503 408.712Z"/>
	<path transform="scale(0.380859 0.380859)" d="M249.661 469.196C252.235 468.915 255.213 468.863 257.768 469.337C261.805 470.085 265.037 472.38 267.307 475.769C277.697 491.281 273.29 526.395 269.937 544.298C259.779 598.534 224.783 666.665 178.434 698.295Q170.887 703.165 163.032 707.522C166.457 694.408 171.198 681.495 175.346 668.596C180.668 652.045 185.544 635.332 190.73 618.733Q213.495 545.502 234.894 471.861C239.8 470.725 244.652 469.745 249.661 469.196Z"/>
	<defs>
		<linearGradient id="gradient_0" gradientUnits="userSpaceOnUse" x1="233.72729" y1="732.29736" x2="136.35493" y2="473.44611">
			<stop offset="0" stop-color="#EFEFEF"/>
			<stop offset="1" stop-color="white"/>
		</linearGradient>
	</defs>
	<path fill="url(#gradient_0)" transform="scale(0.380859 0.380859)" d="M86.6855 588.965C80.5531 577.672 78.6205 566.143 82.342 553.704C93.5514 516.238 143.171 478.478 176.475 460.761C198.463 449.063 237.498 432.265 262.115 439.921C277.083 444.575 287.192 459.125 294.035 472.37C311.553 506.277 313.551 544.06 301.866 580.143C301.405 581.569 300.986 583.102 300.242 584.403C296.512 597.593 290.001 610.725 283.359 622.685C260.615 663.64 227.775 701.408 186.488 724.462C173.913 731.484 160.997 736.265 147.107 740.013C143.427 749.408 141.235 759.326 137.574 768.705C127.497 773.134 116.638 775.717 106.265 779.361C109.96 768.942 113.158 758.461 116.364 747.889C105.33 749.538 92.2107 747.191 83.1158 740.454Q82.5254 740.018 81.9572 739.554Q81.389 739.089 80.8445 738.597Q80.2999 738.105 79.7804 737.587Q79.2608 737.069 78.7675 736.525Q78.2742 735.982 77.8084 735.415Q77.3425 734.848 76.9053 734.259Q76.468 733.669 76.0604 733.059Q75.6528 732.449 75.2758 731.819Q74.8989 731.189 74.5535 730.542Q74.2082 729.894 73.8952 729.23Q73.5823 728.567 73.3025 727.888Q73.0227 727.21 72.7768 726.518Q72.5309 725.827 72.3195 725.124Q72.1081 724.421 71.9316 723.709Q71.7552 722.997 71.6142 722.277Q71.4732 721.556 71.3679 720.83C69.5552 708.583 74.3931 696.584 81.6681 686.916Q84.3694 683.262 87.6321 680.1C84.0059 688.902 82.4375 699.777 86.1729 708.835C89.0879 715.903 95.3145 720.483 102.228 723.222C108.397 725.666 115.089 726.503 121.688 726.58Q131.379 697.389 140.548 668.03C143.042 660.064 145.806 647.853 149.235 640.629C152.325 629.108 156.191 617.736 159.731 606.345Q171.368 570.01 182.021 533.374Q195.953 529.161 209.773 524.592Q197.514 567.751 184.309 610.63C181.147 620.877 177.857 634.488 173.87 644.206C172.659 651.401 168.937 660.522 166.727 667.66Q158.313 694.37 150.385 721.229C154.048 719.995 157.636 718.404 161.118 716.735C215.101 690.86 248.911 637.433 268.242 582.492C278.053 553.609 290.591 501.067 276.572 472.718C273.023 465.542 267.596 460.001 259.827 457.441C236.543 449.77 191.074 469.411 169.837 480.578C140.398 496.057 97.0597 527.299 86.9535 560.444C83.9793 570.199 84.8061 579.117 86.6855 588.965Z"/>
	<path fill="white" transform="scale(0.380859 0.380859)" d="M899.419 268.049C899.925 269.143 897.246 273.278 896.613 274.513C893.088 281.393 890.739 289.236 889.028 296.751C885.639 311.631 885.862 326.157 889.466 340.982C891.783 350.513 895.705 359.568 899.035 368.771C907.671 392.638 911.497 417.58 904.114 442.295C921.189 432.481 936.611 420.971 951.646 408.297C952.853 409.276 953.968 410.38 955.104 411.441C935.234 443.511 903.362 475.41 868.608 490.728C847.239 500.145 814.256 508.845 792.015 500.079C785.177 497.383 780.348 493.047 777.43 486.28C771.262 495.904 763.42 505.083 756.166 513.935C737.791 536.357 713.973 549.296 685.214 552.098L659.088 640.753C643.823 645.065 628.661 649.79 613.375 653.999C618.282 634.277 624.233 614.683 630.073 595.217Q637.782 568.871 645.963 542.667Q621.201 556.408 595.92 569.169C581.986 576.347 567.907 584.078 553.058 589.205C548.1 590.918 542.861 592.285 537.577 592.204C527.936 592.057 520.888 588.212 514.253 581.434Q503.162 591.837 491.695 601.824C482.963 609.322 471.886 619.512 459.497 618.303C451.173 617.491 445.896 612.488 440.977 606.28C434.355 609.478 427.897 613.158 421.368 616.552C399.187 628.079 377.019 640.009 353.988 649.763C345.779 653.24 337.53 656.913 328.89 659.176C318.098 656.081 306.756 651.253 296.984 645.753C299.924 635.687 304.475 625.791 308.1 615.92Q318.358 587.328 328.311 558.628Q339.477 525.801 350.002 492.764C352.844 484.139 355.166 475.265 358.495 466.816C368.223 463.145 456.604 435.965 462.612 436.392C464.169 437.167 465.381 438.097 466.109 439.739C467.06 441.883 466.703 444.822 466.305 447.054C465.119 453.697 462.557 460.337 460.471 466.762Q454.555 484.993 448.18 503.068C450.591 506.909 453.272 510.62 455.844 514.357C445.647 520.912 436.406 529.133 426.734 536.443C408.276 550.393 389.355 562.263 368.238 571.698C366.427 578.242 364.215 584.714 362.169 591.19C359.148 599.378 356.751 607.98 354.228 616.34C382.906 606.1 413.095 596.774 439.427 581.269C443.399 565.895 449.423 550.596 454.401 535.488C466.178 499.748 478.545 464.019 489.455 428.015C507.206 423.085 524.797 417.608 542.51 412.549Q519.58 489.89 492.524 565.886C501.914 556.41 511.488 547.176 518.626 535.787C532.064 514.346 537.751 489.497 544.779 465.487Q553.492 436.201 561.646 406.754C582.584 399.917 604.029 394.018 625.206 387.946C642.862 382.883 660.386 377.505 678.19 372.975C674.762 386.97 670.31 400.684 666.12 414.462Q659.474 436.474 653.136 458.577C635.746 471.623 618.924 485.389 601.233 498.053C592.148 504.556 582.678 510.473 573.247 516.455C570.922 529.017 567.036 541.645 563.602 553.953C570.015 551.594 576.598 549.685 583.012 547.311C598.784 541.475 614.682 534.638 629.621 526.906C638.63 522.244 650.249 515.771 655.608 506.778C658.35 502.177 659.552 495.455 661.045 490.311L669.217 462.059Q677.372 434.547 685.881 407.142C690.063 393.226 693.868 379.225 698.284 365.376C727.505 356.205 757.356 349.399 786.409 339.55C790.01 343.425 793.009 348.171 796.069 352.493Q803.783 363.299 811.243 374.282C809.109 379.527 807.673 385.233 806.006 390.653L797.179 419.338C791.943 436.551 785.941 453.523 780.755 470.753C798.517 450.324 841.828 386.271 847.947 360.493C849.345 354.605 847.863 348.679 847.475 342.751Q847.222 338.788 847.507 334.826Q847.792 330.865 848.61 326.979C854.595 299.188 876.87 282.476 899.419 268.049Z"/>
	<path fill="white" transform="scale(0.380859 0.380859)" d="M646.137 574.874C646.145 575.189 646.157 575.504 646.161 575.819C646.178 577.177 645.613 583.722 645.032 584.366C643.596 585.96 643.214 586.996 642.695 589.026C638.628 604.907 633.287 620.43 629.113 636.27C629.874 637.001 629.586 636.979 630.747 637.005C631.785 637.029 632.708 637.232 633.719 637.447C638.306 638.419 641.904 637.289 645.744 634.725Q648.064 633.183 650.208 631.403C650.711 632.23 650.733 632.398 650.795 633.318L650.959 632.101L650.762 632.437C652.493 629.567 652.542 623.752 655.268 622.022C654.484 626.253 652.603 630.66 651.262 634.77C643.15 637.626 634.73 639.896 626.534 642.549C629.017 630.574 633.239 618.737 636.693 607.004C639.837 596.322 642.362 585.351 646.137 574.874Z"/>
	<path fill="white" transform="scale(0.380859 0.380859)" d="M335.204 563.444C341.991 562.762 349.358 560.571 355.962 558.742C358.67 557.992 360.96 556.798 363.82 556.693C361.975 562.233 360.642 567.879 358.895 573.431C353.636 573.587 334.925 581.76 328.356 583.943Q331.958 573.753 335.204 563.444Z"/>
	<path fill="white" transform="scale(0.380859 0.380859)" d="M418.592 503.168C425.134 502.995 433.623 499.589 439.898 501.469C439.432 502.958 438.543 504.463 439.272 505.978C439.775 507.023 441.1 508.086 441.957 508.853C443.145 509.916 443.897 511.182 444.718 512.532C439.238 517.316 393.263 551.905 388.52 552.453C390.664 549.765 397.878 545.256 401.342 541.411C412.149 529.416 412.825 517.224 418.592 503.168Z"/>
	<path transform="scale(0.380859 0.380859)" d="M619.627 418.579C620.452 418.416 619.976 418.431 621.05 418.715C621.059 419.397 621.081 419.413 620.964 420.207C620.19 425.48 617.796 431.405 616.285 436.605C609.372 460.392 603.966 469.235 584.316 484.48L583.423 485.016L583.111 484.553C588.567 464.22 595.434 444.06 601.623 423.917C607.594 421.968 613.541 420.137 619.627 418.579Z"/>
	<path transform="scale(0.380859 0.380859)" d="M416.569 478.527L417.026 478.568L417.281 479.155L406.861 511.527C405.326 516.413 404.352 521.995 402.34 526.649C397.516 537.804 384.246 545.166 374.625 551.605L373.913 551.505C374.271 547.196 381.104 529.462 382.915 524.206C387.39 511.218 391.434 497.994 395.416 484.844C402.575 483.269 409.635 480.883 416.569 478.527Z"/>
	<path fill="white" transform="scale(0.380859 0.380859)" d="M929.817 434.11C917.562 451.667 889.231 471.926 869.806 481.049C858.054 486.568 844.585 490.924 831.797 493.253C819.46 495.501 801.623 497.346 790.704 489.584C787.469 487.284 785.656 484.765 783.916 481.292C787.852 474.013 795.537 464.595 803.828 462.273Q804.504 462.079 805.197 461.955Q805.89 461.832 806.592 461.781Q807.294 461.73 807.997 461.752Q808.701 461.774 809.398 461.869Q810.095 461.964 810.779 462.131Q811.463 462.297 812.126 462.534Q812.789 462.77 813.423 463.074Q814.058 463.378 814.658 463.746C816.714 465.024 818.534 467.109 818.971 469.551C819.374 471.802 818.684 473.82 817.287 475.588C815.909 477.335 814.317 477.862 812.282 478.566L810.369 479.249C811.589 477.366 813.488 474.992 813.1 472.612C812.886 471.304 812.373 470.22 811.261 469.438C809.301 468.059 806.472 468.162 804.282 468.838C801 469.851 798.166 472.353 796.599 475.393C795.681 477.175 795.113 478.963 795.738 480.943C796.438 483.161 799.059 484.711 801.075 485.511C812.147 489.904 834.606 485.477 845.155 480.552C857.298 474.882 866.208 463.803 870.577 451.271C871.535 448.524 872.39 445.697 872.881 442.827C877.983 443.081 882.795 442.549 887.737 441.192C890.019 440.565 892.184 439.507 894.566 439.388L895.385 440.422C892.02 450.616 887.164 458.561 881.409 467.54C890.2 462.818 898.38 456.593 906.543 450.857C914.325 445.389 922.386 440.04 929.817 434.11Z"/>
	<path transform="scale(0.380859 0.380859)" d="M852.671 373.376C855.456 377.445 859.618 394.01 861.123 399.49C866.095 417.606 868.06 439.83 858.216 456.752C851.136 468.923 840.324 474.082 827.178 477.494C827.657 474.132 827.698 470.912 827.404 467.537C825.767 463.68 823.714 460.285 820.39 457.619C815.605 453.781 810.105 452.83 804.166 453.414C820.897 434.005 843.434 397.376 852.671 373.376Z"/>
	<path fill="white" transform="scale(0.380859 0.380859)" d="M874.557 430.636C874.448 418.433 873.165 407.005 869.979 395.182C865.044 376.872 856.681 359.039 856.86 339.746C857.036 320.735 865.825 306.726 878.997 293.754C876.084 310.408 876.167 325.924 880.021 342.436C885.862 367.46 904.11 398.698 898.514 425.199C898.312 430.196 897.075 435.727 895.385 440.422L894.566 439.388C892.184 439.507 890.019 440.565 887.737 441.192C882.795 442.549 877.983 443.081 872.881 442.827C873.624 438.757 874.216 434.76 874.557 430.636Z"/>
	<path fill="white" transform="scale(0.380859 0.380859)" d="M874.557 430.636C875.325 427.151 874.749 423.671 875.215 420.148C877.515 418.16 892.752 421.622 897.479 419.44C897.677 419.349 897.869 419.245 898.064 419.147L898.471 419.531L898.405 419.339C898.352 421.304 898.409 423.237 898.514 425.199C898.312 430.196 897.075 435.727 895.385 440.422L894.566 439.388C892.184 439.507 890.019 440.565 887.737 441.192C882.795 442.549 877.983 443.081 872.881 442.827C873.624 438.757 874.216 434.76 874.557 430.636Z"/>
	<path fill="white" transform="scale(0.380859 0.380859)" d="M496.319 435.773C507.021 433.218 517.504 430.132 528.017 426.906C525.126 438.596 521.4 450.123 517.899 461.642C513.577 475.866 509.339 490.086 504.755 504.23C501.057 515.643 497.988 528.184 493.173 539.115C483.159 541.227 468.758 547.709 458.168 551.023C461.826 539.253 466.041 527.684 469.916 515.986L496.319 435.773Z"/>
	<path fill="white" transform="scale(0.380859 0.380859)" d="M364.841 473.793C395.713 464.192 427.782 457.668 458.177 446.545C451.391 464.518 446.213 483.293 439.898 501.469C433.623 499.589 425.134 502.995 418.592 503.168Q424.459 484.443 430.724 465.847C416.643 469.463 403.119 474.795 388.862 477.817C381.306 504.305 371.904 530.348 363.82 556.693C360.96 556.798 358.67 557.992 355.962 558.742C349.358 560.571 341.991 562.762 335.204 563.444C345.59 533.82 356.706 504.131 364.841 473.793Z"/>
	<path fill="white" transform="scale(0.380859 0.380859)" d="M569.42 414.63C584.882 409.226 600.758 405.382 616.486 400.871C623.789 398.777 630.931 396.167 638.196 393.952C646.801 391.33 655.55 389.108 664.238 386.776C660.413 402.217 655.618 417.469 651.03 432.7C649.104 439.091 647.623 447.394 644.266 453.055C639.305 461.421 587.771 497.988 576.492 504.9L578.364 498.697Q579.416 498.152 580.421 497.523C585.535 494.289 590.37 490.297 595.056 486.474C615.668 469.656 620.636 455.657 627.473 430.817C629.823 422.277 632.492 413.788 634.397 405.137C621.227 407.792 606.545 412.978 593.232 416.493C590.482 430.643 586.004 444.457 581.979 458.288C575.977 478.91 569.97 499.633 564.694 520.454C552.486 527.388 540.381 535.333 526.697 539.056C538.831 519.938 544.951 496.461 551.317 474.938C557.263 454.836 562.891 434.55 569.42 414.63Z"/>
	<path fill="white" transform="scale(0.380859 0.380859)" d="M564.694 520.454C562.513 528.511 554.349 552.893 556.812 560.033C558.079 561.107 558.959 561.318 560.628 561.209C579.296 559.986 637.982 532.907 653.823 521.514L652.777 523.51C652.88 523.705 652.993 523.896 653.087 524.097C653.672 525.344 653.088 527.53 652.877 528.847L653.335 528.695L653.551 528.998L653.975 528.679C655.485 527.558 656.839 526.574 658.805 526.603C654.531 529.694 649.553 532.031 644.999 534.702C625.082 546.383 604.326 557.225 583.632 567.485C573.078 572.718 562.442 578.5 551.164 582.037C545.406 583.843 539.07 584.754 533.08 583.672C527.7 582.7 523.517 579.851 520.41 575.381C519.05 573.425 518.016 571.115 516.943 568.989C505.555 580.097 484.731 600.677 471.362 607.593C468.359 609.146 465.104 610.18 461.696 610.116C457.425 610.035 453.502 608.338 450.661 605.126C447.972 602.085 446.721 598.465 445.654 594.63Q431.927 602.976 417.844 610.709Q403.762 618.441 389.352 625.544Q374.942 632.647 360.233 639.108Q345.523 645.568 330.543 651.373C322.378 648.482 314.322 645.434 306.454 641.801Q317.825 613.031 328.356 583.943C334.925 581.76 353.636 573.587 358.895 573.431C353.898 591.907 347.581 609.918 342.293 628.295C351.541 625.451 360.646 621.966 369.768 618.734C396.203 609.365 423.201 599.238 447.223 584.587C449.44 573.121 455.317 562.383 458.168 551.023C468.758 547.709 483.159 541.227 493.173 539.115C491.461 543.348 482.362 567.175 483.647 569.821C484.931 572.465 488.182 573.078 490.738 573.881C504.494 568.84 517.926 550.647 526.697 539.056C540.381 535.333 552.486 527.388 564.694 520.454Z"/>
	<defs>
		<linearGradient id="gradient_1" gradientUnits="userSpaceOnUse" x1="708.547" y1="641.17792" x2="720.96533" y2="347.91547">
			<stop offset="0" stop-color="#EBEBEB"/>
			<stop offset="1" stop-color="white"/>
		</linearGradient>
	</defs>
	<path fill="url(#gradient_1)" transform="scale(0.380859 0.380859)" d="M782.285 350.562C788.547 358.714 795.456 367.028 800.086 376.249C795.343 398.765 787.053 420.766 780.287 442.735C778.047 450.008 773.779 467.431 770.723 472.961C764.032 496.168 742.289 521.46 721.299 533.059C708.744 539.997 694.135 544.791 679.672 542.529C677.401 549.786 673.794 564.341 670.722 570.584C669.157 577.042 666.984 583.396 665 589.737C663.905 593.475 662.62 597.239 661.704 601.019L658.49 611.254C657.496 614.875 656.51 618.476 655.268 622.022C652.542 623.752 652.493 629.567 650.762 632.437L650.959 632.101L650.795 633.318C650.733 632.398 650.711 632.23 650.208 631.403Q648.064 633.183 645.744 634.725C641.904 637.289 638.306 638.419 633.719 637.447C632.708 637.232 631.785 637.029 630.747 637.005C629.586 636.979 629.874 637.001 629.113 636.27C633.287 620.43 638.628 604.907 642.695 589.026C643.214 586.996 643.596 585.96 645.032 584.366C645.613 583.722 646.178 577.177 646.161 575.819C646.157 575.504 646.145 575.189 646.137 574.874C646.655 570.65 648.54 565.906 649.743 561.781Q653.661 548.591 657.376 535.343C658.109 532.711 659.548 529.737 659.653 527.043L658.805 526.603C656.839 526.574 655.485 527.558 653.975 528.679L653.551 528.998L653.335 528.695L652.877 528.847C653.088 527.53 653.672 525.344 653.087 524.097C652.993 523.896 652.88 523.705 652.777 523.51L653.823 521.514C655.83 518.98 659.201 516.541 661.701 514.42C662.942 513.375 663.716 512.226 664.331 510.736C666.917 504.473 668.509 497.522 670.502 491.033Q676.538 471.792 682.178 452.431L696.011 405.967C699.358 394.983 703.095 384.025 705.807 372.866Q744.261 362.452 782.285 350.562Z"/>
	<path fill="white" transform="scale(0.380859 0.380859)" d="M658.49 611.254C658.283 608.805 658.506 606.431 658.739 603.986C658.879 602.509 659.081 601.403 660.272 600.402L661.704 601.019L658.49 611.254Z"/>
	<path fill="white" transform="scale(0.380859 0.380859)" d="M665 589.737C664.854 588.75 664.765 588.116 664.322 587.208C664.001 588.038 664.225 587.596 663.575 588.495L662.872 587.965C662.032 583.278 662.388 578.752 664.052 574.281C664.769 572.357 665.468 569.629 666.652 567.994C667.321 567.072 668.116 565.941 669.234 565.713C669.544 567.514 669.013 569.219 669.87 570.906L670.018 570.484L670.722 570.584C669.157 577.042 666.984 583.396 665 589.737Z"/>
	<path fill="white" transform="scale(0.380859 0.380859)" d="M730.874 376.894C745.734 371.345 761.294 368.255 776.454 363.771C768.46 394.108 758.918 424.061 750.056 454.155C746.987 464.574 743.313 475.026 740.764 485.575C735.389 500.959 731.436 510.649 715.904 518.129C706.972 522.431 695.887 524.638 686.009 524.745C685.508 523.512 686.098 522.272 686.392 520.992C690.261 512.164 692.614 501.72 695.433 492.472C699.022 480.697 703.176 468.95 706.254 457.038C709.352 449.977 711.048 441.868 713.317 434.484C719.193 415.358 724.478 395.835 730.874 376.894Z"/>
	<path transform="scale(0.380859 0.380859)" d="M762.173 377.075L762.605 377.173C762.955 379.554 730.389 488.45 726.529 495.918C721.378 505.883 710.852 510.533 700.633 513.721C700.278 513.622 699.979 513.381 699.661 513.194C699.688 507.888 710.217 476.981 712.385 469.861C721.141 441.093 729.006 411.744 738.934 383.369C746.745 381.553 754.455 379.249 762.173 377.075Z"/>
</svg>
